<svg width="30" height="30" viewBox="0 0 30 30" fill="none" xmlns="http://www.w3.org/2000/svg">
<circle cx="15" cy="15" r="14.3197" stroke="white" strokeWidth="1.36054"/>
<path d="M22.5054 14.9988C22.5054 10.8588 19.1454 7.49878 15.0054 7.49878C10.8654 7.49878 7.50537 10.8588 7.50537 14.9988C7.50537 19.1388 10.8654 22.4988 15.0054 22.4988" stroke="white" strokeWidth="1.36054" stroke-linecap="round" stroke-linejoin="round"/>
<path d="M12.0061 8.2489H12.7561C11.2936 12.6289 11.2936 17.3689 12.7561 21.7489H12.0061" stroke="white" strokeWidth="1.36054" stroke-linecap="round" stroke-linejoin="round"/>
<path d="M17.2567 8.2489C17.9842 10.4389 18.3517 12.7189 18.3517 14.9989" stroke="white" strokeWidth="1.36054" stroke-linecap="round" stroke-linejoin="round"/>
<path d="M8.25476 17.9985V17.2485C10.4448 17.976 12.7248 18.3436 15.0048 18.3436" stroke="white" strokeWidth="1.36054" stroke-linecap="round" stroke-linejoin="round"/>
<path d="M8.25476 12.7486C12.6348 11.2861 17.3748 11.2861 21.7548 12.7486" stroke="white" strokeWidth="1.36054" stroke-linecap="round" stroke-linejoin="round"/>
<path d="M19.6555 22.0489C20.981 22.0489 22.0555 20.9744 22.0555 19.6489C22.0555 18.3234 20.981 17.2489 19.6555 17.2489C18.33 17.2489 17.2555 18.3234 17.2555 19.6489C17.2555 20.9744 18.33 22.0489 19.6555 22.0489Z" stroke="white" strokeWidth="1.36054" stroke-linecap="round" stroke-linejoin="round"/>
<path d="M22.5049 22.4991L21.7549 21.7491" stroke="white" strokeWidth="1.36054" stroke-linecap="round" stroke-linejoin="round"/>
</svg>
