<svg width="30" height="30" viewBox="0 0 30 30" fill="none" xmlns="http://www.w3.org/2000/svg">
<path d="M22.4829 19.7474C22.4829 20.0174 22.4229 20.2949 22.2954 20.5649C22.1679 20.8349 22.0029 21.0899 21.7854 21.3299C21.4179 21.7349 21.0129 22.0274 20.5554 22.2149C20.1054 22.4024 19.6179 22.4999 19.0929 22.4999C18.3279 22.4999 17.5104 22.3199 16.6479 21.9524C15.7854 21.5849 14.9229 21.0899 14.0679 20.4674C13.2054 19.8374 12.3879 19.1399 11.6079 18.3674C10.8354 17.5874 10.1379 16.7699 9.51537 15.9149C8.90037 15.0599 8.40537 14.2049 8.04537 13.3574C7.68537 12.5024 7.50537 11.6849 7.50537 10.9049C7.50537 10.3949 7.59537 9.90738 7.77537 9.45738C7.95537 8.99988 8.24037 8.57988 8.63787 8.20488C9.11787 7.73238 9.64287 7.49988 10.1979 7.49988C10.4079 7.49988 10.6179 7.54488 10.8054 7.63488C11.0004 7.72488 11.1729 7.85988 11.3079 8.05488L13.0479 10.5074C13.1829 10.6949 13.2804 10.8674 13.3479 11.0324C13.4154 11.1899 13.4529 11.3474 13.4529 11.4899C13.4529 11.6699 13.4004 11.8499 13.2954 12.0224C13.1979 12.1949 13.0554 12.3749 12.8754 12.5549L12.3054 13.1474C12.2229 13.2299 12.1854 13.3274 12.1854 13.4474C12.1854 13.5074 12.1929 13.5599 12.2079 13.6199C12.2304 13.6799 12.2529 13.7249 12.2679 13.7699C12.4029 14.0174 12.6354 14.3399 12.9654 14.7299C13.3029 15.1199 13.6629 15.5174 14.0529 15.9149C14.4579 16.3124 14.8479 16.6799 15.2454 17.0174C15.6354 17.3474 15.9579 17.5724 16.2129 17.7074C16.2504 17.7224 16.2954 17.7449 16.3479 17.7674C16.4079 17.7899 16.4679 17.7974 16.5354 17.7974C16.6629 17.7974 16.7604 17.7524 16.8429 17.6699L17.4129 17.1074C17.6004 16.9199 17.7804 16.7774 17.9529 16.6874C18.1254 16.5824 18.2979 16.5299 18.4854 16.5299C18.6279 16.5299 18.7779 16.5599 18.9429 16.6274C19.1079 16.6949 19.2804 16.7924 19.4679 16.9199L21.9504 18.6824C22.1454 18.8174 22.2804 18.9749 22.3629 19.1624C22.4379 19.3499 22.4829 19.5374 22.4829 19.7474Z" stroke="white" strokeWidth="1.36054" stroke-miterlimit="10"/>
<circle cx="15" cy="15" r="14.3197" stroke="white" strokeWidth="1.36054"/>
</svg>
