<svg width="16" height="17" viewBox="0 0 16 17" fill="none" xmlns="http://www.w3.org/2000/svg">
<path d="M8.07813 16.2854C6.52795 16.2854 5.26562 15.0239 5.26562 13.4729C5.26562 13.1624 5.51762 12.9104 5.82813 12.9104C6.13863 12.9104 6.39063 13.1624 6.39063 13.4729C6.39063 14.4037 7.14813 15.1604 8.07813 15.1604C9.00812 15.1604 9.76563 14.4037 9.76563 13.4729C9.76563 13.1624 10.0176 12.9104 10.3281 12.9104C10.6386 12.9104 10.8906 13.1624 10.8906 13.4729C10.8906 15.0239 9.62843 16.2854 8.07813 16.2854Z" fill="white"/>
<path d="M14.2656 14.0354H1.89058C1.16685 14.0354 0.578125 13.4467 0.578125 12.7229C0.578125 12.3388 0.745392 11.9752 1.03708 11.7254C1.05589 11.7089 1.07608 11.6939 1.09709 11.6803C2.19806 10.7196 2.82812 9.33737 2.82812 7.87784V5.78535C2.82812 2.89046 5.18387 0.5354 8.07808 0.5354C8.1981 0.5354 8.32788 0.537598 8.44791 0.557922C8.75456 0.608871 8.96165 0.899185 8.91057 1.20515C8.85962 1.51112 8.56409 1.71822 8.26334 1.66713C8.20332 1.65738 8.13741 1.6604 8.07808 1.6604C5.80418 1.6604 3.95312 3.51064 3.95312 5.78535V7.87784C3.95312 9.6899 3.15881 11.4044 1.77591 12.5811C1.76465 12.5901 1.7549 12.5984 1.74281 12.6066C1.72263 12.6322 1.70312 12.6712 1.70312 12.7229C1.70312 12.8248 1.78868 12.9104 1.89058 12.9104H14.2656C14.3676 12.9104 14.4532 12.8248 14.4532 12.7229C14.4532 12.6703 14.4337 12.6322 14.4127 12.6066C14.4014 12.5984 14.3916 12.5901 14.3804 12.5811C12.9967 11.4036 12.2032 9.6899 12.2032 7.87784V7.06046C12.2032 6.74995 12.4552 6.49796 12.7657 6.49796C13.0762 6.49796 13.3282 6.74995 13.3282 7.06046V7.87784C13.3282 9.3382 13.9589 10.7211 15.0614 11.6827C15.0816 11.6961 15.1011 11.7104 15.1191 11.7262C15.4109 11.9752 15.5782 12.3388 15.5782 12.7229C15.5782 13.4467 14.9894 14.0354 14.2656 14.0354Z" fill="white"/>
</svg>
