<svg width="16" height="16" viewBox="0 0 16 16" fill="none" xmlns="http://www.w3.org/2000/svg">
<g clipPath="url(#clip0_5253_3394)">
<rect width="16" height="16" fill="black"/>
<path d="M12.1242 8.38927L12.1242 8.38935L12.1241 8.38943C11.6342 8.886 11.0709 9.19773 10.4544 9.42165L10.4544 9.42167C9.62637 9.72309 8.76528 9.85313 7.88919 9.90023C7.78353 9.90586 7.69962 9.91477 7.63394 9.93188C7.56812 9.94904 7.51938 9.97475 7.48535 10.0148C7.45135 10.0548 7.4334 10.1075 7.42582 10.1759C7.41827 10.2442 7.4209 10.3294 7.42916 10.4355C7.4831 11.1302 7.70725 11.7796 7.93344 12.428C8.10742 12.9265 8.27088 13.4272 8.27107 13.9616C8.27108 14.116 8.23508 14.2453 8.16467 14.3526C8.09424 14.4599 7.98873 14.5462 7.84827 14.6134C7.64868 14.7091 7.43951 14.746 7.22375 14.7554C6.27706 14.7965 5.32993 14.8362 4.38344 14.8654C4.19235 14.8712 3.99718 14.8401 3.8067 14.8045C3.45165 14.7379 3.23156 14.4415 3.2223 14.0681C3.21346 13.642 3.27037 13.2171 3.39108 12.8082L3.3911 12.8082L3.39112 12.8081C3.76613 11.4989 3.86984 10.162 3.82896 8.80859L3.81818 8.8089L3.82894 8.80857C3.80656 8.07073 3.7637 7.33436 3.66896 6.60081C3.56372 5.77585 3.36873 4.96495 3.08744 4.1825C2.94152 3.77557 2.81331 3.36129 2.78689 2.92641L2.78689 2.92641C2.77941 2.80451 2.77469 2.68013 2.79459 2.56236C2.84505 2.2668 3.03998 2.08982 3.31732 2.00736L3.31735 2.00735C3.49556 1.954 3.68123 1.90849 3.86463 1.90078L3.86463 1.90079C5.03552 1.85093 6.20663 1.80812 7.37792 1.7724L7.37795 1.7724C7.87649 1.75632 8.37556 1.74348 8.87379 1.74955L8.87382 1.74955L8.87385 1.74955C9.49563 1.7544 10.1121 1.86325 10.6977 2.07162C11.3677 2.31212 11.9538 2.68394 12.3919 3.25556C12.7431 3.71553 12.9742 4.2558 13.0643 4.82765L13.0643 4.8277L13.0643 4.82775C13.1965 5.63125 13.1742 6.4218 12.8942 7.19513C12.7301 7.6457 12.467 8.05378 12.1242 8.38927ZM9.22457 6.36069L9.2265 6.35965L9.22801 6.35805C9.72836 5.83044 9.71312 5.08317 9.17374 4.70313C8.69739 4.36729 8.15802 4.32711 7.60809 4.4263L7.60808 4.42631C7.47426 4.45056 7.37848 4.49529 7.31681 4.56576C7.25499 4.6364 7.22924 4.73088 7.23106 4.85059C7.23853 5.31966 7.25476 5.79014 7.28498 6.25865C7.29404 6.39855 7.32022 6.49301 7.3825 6.55847C7.44457 6.62372 7.54021 6.65766 7.68138 6.68287C8.04764 6.75129 8.42563 6.72082 8.77639 6.59459L8.7764 6.59458C8.90769 6.5471 9.03077 6.47405 9.12721 6.4168C9.16384 6.39505 9.19663 6.37559 9.22457 6.36069Z" fill="#30EBFF"/>
<path d="M7.28498 6.25865C7.25476 5.79014 7.23853 5.31966 7.23106 4.85059C7.22924 4.73088 7.25499 4.6364 7.31681 4.56576C7.37848 4.49529 7.47426 4.45056 7.60808 4.42631L7.60809 4.4263C8.15802 4.32711 8.69739 4.36729 9.17374 4.70313C9.71312 5.08317 9.72836 5.83044 9.22801 6.35805L9.2265 6.35965L9.22457 6.36069C9.19663 6.37559 9.16384 6.39505 9.12721 6.4168C9.03077 6.47405 8.90769 6.5471 8.7764 6.59458L8.77639 6.59459C8.42563 6.72082 8.04764 6.75129 7.68138 6.68287C7.54021 6.65766 7.44457 6.62372 7.3825 6.55847C7.32022 6.49301 7.29404 6.39855 7.28498 6.25865ZM7.28498 6.25865L7.2975 6.25784M12.1242 8.38927L12.1242 8.38935L12.1241 8.38943C11.6342 8.886 11.0709 9.19773 10.4544 9.42165L10.4544 9.42167C9.62637 9.72309 8.76528 9.85313 7.88919 9.90023C7.78353 9.90586 7.69962 9.91477 7.63394 9.93188C7.56812 9.94904 7.51938 9.97475 7.48535 10.0148C7.45135 10.0548 7.4334 10.1075 7.42582 10.1759C7.41827 10.2442 7.4209 10.3294 7.42916 10.4355C7.4831 11.1302 7.70725 11.7796 7.93344 12.428C8.10742 12.9265 8.27088 13.4272 8.27107 13.9616C8.27108 14.116 8.23508 14.2453 8.16467 14.3526C8.09424 14.4599 7.98873 14.5462 7.84827 14.6134C7.64868 14.7091 7.43951 14.746 7.22375 14.7554C6.27706 14.7965 5.32993 14.8362 4.38344 14.8654C4.19235 14.8712 3.99718 14.8401 3.8067 14.8045C3.45165 14.7379 3.23156 14.4415 3.2223 14.0681C3.21346 13.642 3.27037 13.2171 3.39108 12.8082L3.3911 12.8082L3.39112 12.8081C3.76613 11.4989 3.86984 10.162 3.82896 8.80859L3.81818 8.8089L3.82894 8.80857C3.80656 8.07073 3.7637 7.33436 3.66896 6.60081C3.56372 5.77585 3.36873 4.96495 3.08744 4.1825C2.94152 3.77557 2.81331 3.36129 2.78689 2.92641L2.78689 2.92641C2.77941 2.80451 2.77469 2.68013 2.79459 2.56236C2.84505 2.2668 3.03998 2.08982 3.31732 2.00736L3.31735 2.00735C3.49556 1.954 3.68123 1.90849 3.86463 1.90078L3.86463 1.90079C5.03552 1.85093 6.20663 1.80812 7.37792 1.7724L7.37795 1.7724C7.87649 1.75632 8.37556 1.74348 8.87379 1.74955L8.87382 1.74955L8.87385 1.74955C9.49563 1.7544 10.1121 1.86325 10.6977 2.07162C11.3677 2.31212 11.9538 2.68394 12.3919 3.25556C12.7431 3.71553 12.9742 4.2558 13.0643 4.82765L13.0643 4.8277L13.0643 4.82775C13.1965 5.63125 13.1742 6.4218 12.8942 7.19513C12.7301 7.6457 12.467 8.05378 12.1242 8.38927Z" stroke="white" strokeWidth="0.6"/>
</g>
<defs>
<clipPath id="clip0_5253_3394">
<rect width="16" height="16" fill="white"/>
</clipPath>
</defs>
</svg>
