<svg width="22" height="22" viewBox="0 0 22 22" fill="none" xmlns="http://www.w3.org/2000/svg">
<path d="M16.8829 18.297C15.1238 19.4127 13.083 20.0035 10.9999 20C5.60788 20 1.12188 16.12 0.181885 11C0.6128 8.67181 1.78346 6.54476 3.51988 4.93504L0.393885 1.80804L1.80788 0.394043L21.6069 20.192L20.1929 21.607L16.8829 18.297ZM4.93588 6.35004C3.57677 7.5857 2.62978 9.20882 2.22288 11C2.53518 12.3665 3.16215 13.6412 4.05389 14.7226C4.94563 15.8041 6.07751 16.6624 7.35944 17.2294C8.64136 17.7963 10.0379 18.0561 11.438 17.9882C12.838 17.9202 14.2029 17.5264 15.4239 16.838L13.3959 14.81C12.5326 15.3539 11.5101 15.5881 10.4961 15.4745C9.48216 15.3608 8.53692 14.9059 7.81545 14.1845C7.09398 13.463 6.63911 12.5178 6.52545 11.5038C6.41178 10.4898 6.64607 9.46735 7.18988 8.60404L4.93588 6.35004ZM11.9139 13.328L8.67188 10.087C8.49395 10.54 8.45207 11.035 8.55139 11.5114C8.65071 11.9878 8.8869 12.4248 9.231 12.7689C9.5751 13.113 10.0122 13.3492 10.4885 13.4485C10.9649 13.5479 11.4609 13.506 11.9139 13.328ZM19.8059 15.593L18.3749 14.162C19.0449 13.2099 19.5215 12.1357 19.7779 11C19.5061 9.80966 18.9951 8.68697 18.2759 7.70024C17.5568 6.71351 16.6444 5.88334 15.5944 5.2602C14.5444 4.63707 13.3786 4.23398 12.1679 4.07546C10.9572 3.91693 9.72695 4.00627 8.55188 4.33804L6.97388 2.76004C8.22088 2.27004 9.57988 2.00004 10.9999 2.00004C16.3919 2.00004 20.8779 5.88004 21.8189 11C21.5125 12.6661 20.8228 14.2383 19.8059 15.593ZM10.7229 6.50904C10.8142 6.50304 10.9066 6.50004 10.9999 6.50004C11.6143 6.49996 12.2222 6.6257 12.7862 6.86952C13.3502 7.11333 13.8582 7.47005 14.2791 7.9177C14.6999 8.36535 15.0246 8.89444 15.2332 9.47236C15.4418 10.0503 15.5298 10.6648 15.4919 11.278L10.7229 6.50904Z" fill="#C8C8D0"/>
</svg>
