<svg width="500" height="515" viewBox="0 0 500 515" fill="none" xmlns="http://www.w3.org/2000/svg">
<path d="M0 250C0 388.071 111.929 500 250 500C388.071 500 500 388.071 500 250C500 111.929 388.071 0 250 0C111.929 0 0 111.929 0 250Z" fill="white" fillOpacity="0.15"/>
<path d="M304.764 88.2309H394.258C394.258 88.2309 391.124 78.0469 378.936 77.2629C366.748 76.4799 365.355 81.5719 349.511 72.1709C333.667 62.7699 308.943 72.5629 304.764 88.2309Z" fill="white"/>
<path d="M76.782 167.627C76.782 167.627 75.914 153.33 94.137 152.309C94.137 152.309 101.947 152.309 107.153 157.16C112.359 162.011 115.541 157.415 121.615 159.968C127.689 162.521 127.689 167.627 127.689 167.627H76.782Z" fill="white"/>
<path d="M368.598 229.844H394.054C394.054 229.844 391.043 220.538 381.326 220.538C371.609 220.538 368.598 229.844 368.598 229.844Z" fill="white"/>
<path d="M432.756 169.265C437.46 155.075 429.771 139.758 415.581 135.054C401.391 130.349 386.074 138.039 381.37 152.228C376.665 166.418 384.355 181.735 398.545 186.44C412.734 191.144 428.051 183.455 432.756 169.265Z" fill="white"/>
<path d="M402.58 170.139C407.176 170.218 411.829 170.28 416.055 169.987C417.393 169.895 418.549 167.769 416.924 167.098C417.608 166.747 418.301 166.409 418.6 165.642C418.883 164.916 418.543 163.931 417.787 163.744C419.381 164.139 420.01 161.609 418.766 160.792C419.424 160.231 419.971 159.491 420.11 158.637C420.249 157.784 419.899 156.821 419.14 156.407C418.642 156.136 418.05 156.125 417.483 156.121C415.572 156.107 413.66 156.093 411.749 156.078C412.267 153.087 412.422 149.827 410.902 147.2C410.444 146.409 409.214 145.46 408.238 146.069C407.323 146.64 407.577 148.059 407.623 148.954C407.814 152.674 405.697 156.417 402.41 158.17C402.411 158.172 402.628 166.096 402.58 170.139Z" fill="#FBC42E"/>
<path d="M400.913 158.172H393.967V170.129H400.913V158.172Z" fill="#FBC42E"/>
<path d="M102.252 232.553C104.888 221.333 97.9293 210.101 86.7096 207.465C75.49 204.829 64.2579 211.788 61.6221 223.008C58.9863 234.227 65.9449 245.459 77.1646 248.095C88.3843 250.731 99.6163 243.772 102.252 232.553Z" fill="#FBC42E"/>
<path d="M86.3518 219.515C82.3008 219.469 81.9718 221.942 81.9718 221.942C81.9718 221.942 81.6988 219.463 77.6478 219.417C73.5968 219.371 72.1178 224.006 73.1378 226.795C73.9228 228.942 78.6418 233.673 80.7678 235.732C81.3498 236.296 82.2688 236.306 82.8638 235.756C85.0358 233.746 89.8608 229.124 90.6938 226.995C91.7748 224.228 90.4028 219.561 86.3518 219.515Z" fill="white"/>
<path d="M170.618 116.012H55.1988C52.4018 116.012 50.1348 113.745 50.1348 110.948V65.7051C50.1348 62.9081 52.4018 60.6411 55.1988 60.6411H170.618C173.415 60.6411 175.682 62.9081 175.682 65.7051V110.948C175.682 113.745 173.415 116.012 170.618 116.012Z" fill="#FFF7E3"/>
<path d="M109.079 76.457L109.855 78.846C109.909 79.012 110.063 79.124 110.238 79.124H112.749C113.139 79.124 113.301 79.623 112.986 79.853L110.954 81.329C110.813 81.432 110.754 81.613 110.808 81.779L111.584 84.168C111.704 84.539 111.28 84.847 110.964 84.618L108.932 83.142C108.791 83.039 108.6 83.039 108.459 83.142L106.427 84.618C106.111 84.847 105.687 84.539 105.807 84.168L106.583 81.779C106.637 81.613 106.578 81.431 106.437 81.329L104.405 79.853C104.089 79.624 104.252 79.124 104.642 79.124H107.153C107.327 79.124 107.482 79.012 107.536 78.846L108.312 76.457C108.433 76.086 108.958 76.086 109.079 76.457Z" fill="#FBC42E"/>
<path d="M122.005 76.457L122.781 78.846C122.835 79.012 122.99 79.124 123.164 79.124H125.675C126.065 79.124 126.227 79.623 125.912 79.853L123.88 81.329C123.739 81.432 123.68 81.613 123.734 81.779L124.51 84.168C124.63 84.539 124.206 84.847 123.89 84.618L121.858 83.142C121.717 83.039 121.526 83.039 121.385 83.142L119.353 84.618C119.037 84.847 118.613 84.539 118.733 84.168L119.509 81.779C119.563 81.613 119.504 81.431 119.363 81.329L117.331 79.853C117.015 79.624 117.178 79.124 117.568 79.124H120.079C120.253 79.124 120.408 79.012 120.462 78.846L121.238 76.457C121.36 76.086 121.885 76.086 122.005 76.457Z" fill="#FBC42E"/>
<path d="M134.932 76.457L135.708 78.846C135.762 79.012 135.917 79.124 136.091 79.124H138.603C138.993 79.124 139.155 79.623 138.84 79.853L136.808 81.329C136.667 81.432 136.608 81.613 136.662 81.779L137.438 84.168C137.558 84.539 137.134 84.847 136.818 84.618L134.786 83.142C134.645 83.039 134.454 83.039 134.313 83.142L132.281 84.618C131.965 84.847 131.541 84.539 131.661 84.168L132.437 81.779C132.491 81.613 132.432 81.431 132.291 81.329L130.259 79.853C129.943 79.624 130.106 79.124 130.496 79.124H133.008C133.182 79.124 133.337 79.012 133.391 78.846L134.167 76.457C134.286 76.086 134.811 76.086 134.932 76.457Z" fill="#FBC42E"/>
<path d="M147.855 76.457L148.631 78.846C148.685 79.012 148.84 79.124 149.014 79.124H151.526C151.916 79.124 152.078 79.623 151.763 79.853L149.731 81.329C149.59 81.432 149.531 81.613 149.585 81.779L150.361 84.168C150.481 84.539 150.057 84.847 149.741 84.618L147.709 83.142C147.568 83.039 147.377 83.039 147.236 83.142L145.204 84.618C144.888 84.847 144.464 84.539 144.584 84.168L145.36 81.779C145.414 81.613 145.355 81.431 145.214 81.329L143.182 79.853C142.866 79.624 143.029 79.124 143.419 79.124H145.931C146.105 79.124 146.26 79.012 146.314 78.846L147.09 76.457C147.21 76.086 147.735 76.086 147.855 76.457Z" fill="#FBC42E"/>
<path d="M160.781 76.457L161.557 78.846C161.611 79.012 161.766 79.124 161.94 79.124H164.452C164.842 79.124 165.004 79.623 164.689 79.853L162.657 81.329C162.516 81.432 162.457 81.613 162.511 81.779L163.287 84.168C163.407 84.539 162.983 84.847 162.667 84.618L160.635 83.142C160.494 83.039 160.303 83.039 160.162 83.142L158.13 84.618C157.814 84.847 157.39 84.539 157.51 84.168L158.286 81.779C158.34 81.613 158.281 81.431 158.14 81.329L156.108 79.853C155.792 79.624 155.955 79.124 156.345 79.124H158.857C159.031 79.124 159.186 79.012 159.24 78.846L160.016 76.457C160.135 76.086 160.66 76.086 160.781 76.457Z" fill="#FBC42E"/>
<path d="M104.824 91.8242H164.856" stroke="#EFA729" strokeWidth="0.9843" strokeMiterlimit="10"/>
<path d="M104.824 99.3232H137.221" stroke="#EFA729" strokeWidth="0.9843" strokeMiterlimit="10"/>
<path d="M80.9039 71.0246C90.602 72.6077 97.1805 81.7529 95.5974 91.451C94.0143 101.149 84.8691 107.728 75.171 106.144C65.4729 104.561 58.8945 95.4162 60.4776 85.7181C62.0607 76.02 71.2059 69.4416 80.9039 71.0246Z" fill="white" stroke="#EFA729"/>
<path d="M148.457 112.046L156.926 123.427L165.84 112.046H148.457Z" fill="#FFF7E3"/>
<path d="M82.4775 82.5639C82.4775 85.0139 80.4915 86.9999 78.0415 86.9999C75.5915 86.9999 73.6055 85.0139 73.6055 82.5639C73.6055 80.1139 75.5915 78.1279 78.0415 78.1279C80.4915 78.1279 82.4775 80.1139 82.4775 82.5639Z" fill="#FBC42E"/>
<path d="M84.9715 97.4152C85.8125 97.4152 86.4545 96.6492 86.2975 95.8232C85.4755 91.4912 82.0965 88.2432 78.0415 88.2432C73.9865 88.2432 70.6075 91.4912 69.7855 95.8232C69.6285 96.6492 70.2705 97.4152 71.1115 97.4152H84.9715Z" fill="#FBC42E"/>
<path d="M134.362 260.083V266.611H140.521V317.667H115.633V293.037H76.5488V423.689H109.75H115.633H140.521H151.834H182.605V266.611V262.268V260.083H134.362Z" fill="#FFECBB"/>
<path d="M398.946 327.545V268.867H344.22V301.808H313.496V423.689H344.22H354.836H378.275H398.946H419.616V333.956H424.703V327.545H398.946Z" fill="#FFECBB"/>
<path d="M332.77 184.611H164.535V424.408H332.77V184.611Z" fill="#FBC42E"/>
<path d="M332.77 162.985H164.535V184.611H332.77V162.985Z" fill="#FFECBB"/>
<path d="M337.332 170.73H159.582V179.348H337.332V170.73Z" fill="#FBC42E"/>
<path d="M339.11 162.985H158.96L158.039 154.367H340.032L339.11 162.985Z" fill="#FBC42E"/>
<path d="M164.535 250.866H332.77" stroke="white" strokeOpacity="0.49" strokeWidth="1.8429" strokeMiterlimit="10"/>
<path d="M164.535 315.64H332.77" stroke="white" strokeOpacity="0.49" strokeWidth="1.8429" strokeMiterlimit="10"/>
<path d="M332.77 406.435H164.535V424.408H332.77V406.435Z" fill="#FBB90D"/>
<path d="M204.585 194.454C198.144 194.454 192.922 199.676 192.922 206.117V237.672H216.539V206.407C216.538 199.806 211.187 194.454 204.585 194.454Z" fill="white"/>
<path d="M204.731 197.777C200.258 197.777 196.633 201.403 196.633 205.875V237.671H212.83V205.875C212.829 201.403 209.204 197.777 204.731 197.777Z" fill="#A6D9EF"/>
<path d="M212.83 210.1H196.633V212.077H212.83V210.1Z" fill="#FBC42E"/>
<path d="M217.999 237.672H191.461V240.873H217.999V237.672Z" fill="white" fillOpacity="0.42"/>
<g opacity="0.6">
<path opacity="0.72" d="M197.273 234.387L196.109 231.552L211.904 219.32L213.816 221.576L197.273 234.387Z" fill="white"/>
<path opacity="0.72" d="M196.542 229.633L196.109 227.159L212.827 214.094V216.908L196.542 229.633Z" fill="white"/>
</g>
<path d="M213.817 237.672H211.84V205.876C211.84 201.956 208.651 198.766 204.73 198.766C200.81 198.766 197.62 201.955 197.62 205.876V237.672H195.643V205.876C195.643 200.866 199.719 196.789 204.73 196.789C209.741 196.789 213.817 200.866 213.817 205.876V237.672Z" fill="#FBC42E"/>
<path d="M250.048 194.454C243.607 194.454 238.385 199.676 238.385 206.117V237.672H262.002V206.407C262.002 199.806 256.65 194.454 250.048 194.454Z" fill="white"/>
<path d="M250.194 197.777C245.721 197.777 242.096 201.403 242.096 205.875V237.671H258.293V205.875C258.293 201.403 254.667 197.777 250.194 197.777Z" fill="#A6D9EF"/>
<path d="M258.293 210.1H242.096V212.077H258.293V210.1Z" fill="#FBC42E"/>
<path d="M263.462 237.672H236.924V240.873H263.462V237.672Z" fill="white" fillOpacity="0.42"/>
<g opacity="0.6">
<path opacity="0.72" d="M242.737 234.387L241.574 231.552L257.369 219.32L259.28 221.576L242.737 234.387Z" fill="white"/>
<path opacity="0.72" d="M242.007 229.633L241.574 227.159L258.292 214.094V216.908L242.007 229.633Z" fill="white"/>
</g>
<path d="M259.279 237.672H257.302V205.876C257.302 201.956 254.112 198.766 250.192 198.766C246.272 198.766 243.082 201.955 243.082 205.876V237.672H241.105V205.876C241.105 200.866 245.181 196.789 250.192 196.789C255.203 196.789 259.279 200.866 259.279 205.876V237.672Z" fill="#FBC42E"/>
<path d="M295.513 194.454C289.072 194.454 283.85 199.676 283.85 206.117V237.672H307.467V206.407C307.466 199.806 302.115 194.454 295.513 194.454Z" fill="white"/>
<path d="M295.659 197.777C291.186 197.777 287.561 201.403 287.561 205.875V237.671H303.758V205.875C303.758 201.403 300.132 197.777 295.659 197.777Z" fill="#A6D9EF"/>
<path d="M303.758 210.1H287.561V212.077H303.758V210.1Z" fill="#FBC42E"/>
<path d="M308.927 237.672H282.389V240.873H308.927V237.672Z" fill="white" fillOpacity="0.42"/>
<g opacity="0.6">
<path opacity="0.72" d="M288.201 234.387L287.037 231.552L302.832 219.32L304.744 221.576L288.201 234.387Z" fill="white"/>
<path opacity="0.72" d="M287.47 229.633L287.037 227.159L303.756 214.094V216.908L287.47 229.633Z" fill="white"/>
</g>
<path d="M304.744 237.672H302.767V205.876C302.767 201.956 299.578 198.766 295.657 198.766C291.737 198.766 288.547 201.955 288.547 205.876V237.672H286.57V205.876C286.57 200.866 290.646 196.789 295.657 196.789C300.668 196.789 304.744 200.866 304.744 205.876V237.672Z" fill="#FBC42E"/>
<path d="M204.585 259.771C198.144 259.771 192.922 264.993 192.922 271.434V302.989H216.539V271.724C216.538 265.123 211.187 259.771 204.585 259.771Z" fill="white"/>
<path d="M204.731 263.095C200.258 263.095 196.633 266.721 196.633 271.193V302.989H212.83V271.193C212.829 266.721 209.204 263.095 204.731 263.095Z" fill="#A6D9EF"/>
<path d="M212.83 275.417H196.633V277.394H212.83V275.417Z" fill="#FBC42E"/>
<path d="M217.999 302.99H191.461V306.191H217.999V302.99Z" fill="white" fillOpacity="0.42"/>
<g opacity="0.6">
<path opacity="0.72" d="M197.273 299.704L196.109 296.87L211.904 284.638L213.816 286.893L197.273 299.704Z" fill="white"/>
<path opacity="0.72" d="M196.542 294.951L196.109 292.476L212.827 279.412V282.225L196.542 294.951Z" fill="white"/>
</g>
<path d="M213.817 302.99H211.84V271.194C211.84 267.274 208.651 264.084 204.73 264.084C200.81 264.084 197.62 267.274 197.62 271.194V302.99H195.643V271.194C195.643 266.184 199.719 262.107 204.73 262.107C209.741 262.107 213.817 266.184 213.817 271.194V302.99Z" fill="#FBC42E"/>
<path d="M250.048 259.771C243.607 259.771 238.385 264.993 238.385 271.434V302.989H262.002V271.724C262.002 265.123 256.65 259.771 250.048 259.771Z" fill="white"/>
<path d="M250.194 263.095C245.721 263.095 242.096 266.721 242.096 271.193V302.989H258.293V271.193C258.293 266.721 254.667 263.095 250.194 263.095Z" fill="#A6D9EF"/>
<path d="M258.293 275.417H242.096V277.394H258.293V275.417Z" fill="#FBC42E"/>
<path d="M263.462 302.99H236.924V306.191H263.462V302.99Z" fill="white" fillOpacity="0.42"/>
<g opacity="0.6">
<path opacity="0.72" d="M242.737 299.704L241.574 296.87L257.369 284.638L259.28 286.893L242.737 299.704Z" fill="white"/>
<path opacity="0.72" d="M242.007 294.951L241.574 292.476L258.292 279.412V282.225L242.007 294.951Z" fill="white"/>
</g>
<path d="M259.279 302.99H257.302V271.194C257.302 267.274 254.112 264.084 250.192 264.084C246.272 264.084 243.082 267.274 243.082 271.194V302.99H241.105V271.194C241.105 266.184 245.181 262.107 250.192 262.107C255.203 262.107 259.279 266.184 259.279 271.194V302.99Z" fill="#FBC42E"/>
<path d="M295.513 259.771C289.072 259.771 283.85 264.993 283.85 271.434V302.989H307.467V271.724C307.466 265.123 302.115 259.771 295.513 259.771Z" fill="white"/>
<path d="M295.659 263.095C291.186 263.095 287.561 266.721 287.561 271.193V302.989H303.758V271.193C303.758 266.721 300.132 263.095 295.659 263.095Z" fill="#A6D9EF"/>
<path d="M303.758 275.417H287.561V277.394H303.758V275.417Z" fill="#FBC42E"/>
<path d="M308.927 302.99H282.389V306.191H308.927V302.99Z" fill="white" fillOpacity="0.42"/>
<g opacity="0.6">
<path opacity="0.72" d="M288.201 299.704L287.037 296.87L302.832 284.638L304.744 286.893L288.201 299.704Z" fill="white"/>
<path opacity="0.72" d="M287.47 294.951L287.037 292.476L303.756 279.412V282.225L287.47 294.951Z" fill="white"/>
</g>
<path d="M304.744 302.99H302.767V271.194C302.767 267.274 299.578 264.084 295.657 264.084C291.737 264.084 288.547 267.274 288.547 271.194V302.99H286.57V271.194C286.57 266.184 290.646 262.107 295.657 262.107C300.668 262.107 304.744 266.184 304.744 271.194V302.99Z" fill="#FBC42E"/>
<path d="M250.048 325.089C243.607 325.089 238.385 330.311 238.385 336.752V368.307H262.002V337.042C262.002 330.44 256.65 325.089 250.048 325.089Z" fill="white"/>
<path d="M250.194 328.412C245.721 328.412 242.096 332.038 242.096 336.51V368.306H258.293V336.51C258.293 332.038 254.667 328.412 250.194 328.412Z" fill="#A6D9EF"/>
<path d="M258.293 340.735H242.096V342.712H258.293V340.735Z" fill="#FBC42E"/>
<path d="M263.462 368.307H236.924V371.508H263.462V368.307Z" fill="white" fillOpacity="0.42"/>
<g opacity="0.6">
<path opacity="0.72" d="M242.737 365.022L241.574 362.187L257.369 349.955L259.28 352.211L242.737 365.022Z" fill="white"/>
<path opacity="0.72" d="M242.007 360.268L241.574 357.794L258.292 344.729V347.542L242.007 360.268Z" fill="white"/>
</g>
<path d="M259.279 368.307H257.302V336.511C257.302 332.591 254.112 329.401 250.192 329.401C246.272 329.401 243.082 332.591 243.082 336.511V368.307H241.105V336.511C241.105 331.501 245.181 327.424 250.192 327.424C255.203 327.424 259.279 331.501 259.279 336.511V368.307Z" fill="#FBC42E"/>
<path d="M295.513 325.089C289.072 325.089 283.85 330.311 283.85 336.752V368.307H307.467V337.042C307.466 330.44 302.115 325.089 295.513 325.089Z" fill="white"/>
<path d="M295.659 328.412C291.186 328.412 287.561 332.038 287.561 336.51V368.306H303.758V336.51C303.758 332.038 300.132 328.412 295.659 328.412Z" fill="#A6D9EF"/>
<path d="M303.758 340.735H287.561V342.712H303.758V340.735Z" fill="#FBC42E"/>
<path d="M308.927 368.307H282.389V371.508H308.927V368.307Z" fill="white" fillOpacity="0.42"/>
<g opacity="0.6">
<path opacity="0.72" d="M288.201 365.022L287.037 362.187L302.832 349.955L304.744 352.211L288.201 365.022Z" fill="white"/>
<path opacity="0.72" d="M287.47 360.268L287.037 357.794L303.756 344.729V347.542L287.47 360.268Z" fill="white"/>
</g>
<path d="M304.744 368.307H302.767V336.511C302.767 332.591 299.578 329.401 295.657 329.401C291.737 329.401 288.547 332.591 288.547 336.511V368.307H286.57V336.511C286.57 331.501 290.646 327.424 295.657 327.424C300.668 327.424 304.744 331.501 304.744 336.511V368.307Z" fill="#FBC42E"/>
<path d="M218.475 405.241H190.275V340.382C190.275 332.595 196.588 326.282 204.375 326.282C212.162 326.282 218.475 332.595 218.475 340.382V405.241Z" fill="#5954ED"/>
<path d="M219.668 406.435H189.082V340.382C189.082 331.949 195.942 325.088 204.375 325.088C212.808 325.088 219.668 331.948 219.668 340.382V406.435ZM191.469 404.048H217.282V340.382C217.282 333.265 211.492 327.475 204.376 327.475C197.26 327.475 191.47 333.265 191.47 340.382V404.048H191.469Z" fill="#FBC42E"/>
<path d="M191.469 404.048H217.282V340.382C217.282 333.265 211.492 327.475 204.376 327.475C197.26 327.475 191.47 333.265 191.47 340.382V404.048H191.469Z" fill="#FFECBB"/>
<path d="M190.288 346.075L190.266 343.688C218.701 343.42 218.842 343.563 219.314 344.03L219.669 344.882H217.282H218.475L218.233 346.042C217.045 345.882 200.87 345.975 190.288 346.075Z" fill="#FBC42E"/>
<path d="M213.75 349.955H195.34V398.889H213.75V349.955Z" stroke="#FBC42E" strokeWidth="0.9214" strokeMiterlimit="10"/>
<path d="M208.626 336.301C208.626 338.655 206.717 340.564 204.363 340.564C202.009 340.564 200.1 338.655 200.1 336.301C200.1 333.947 202.009 332.038 204.363 332.038C206.717 332.038 208.626 333.947 208.626 336.301Z" stroke="#FBC42E" strokeWidth="0.9214" strokeMiterlimit="10"/>
<path d="M226.452 406.435H182.271V424.575H226.452V406.435Z" fill="white"/>
<path d="M226.452 411.704H182.271V413.004H226.452V411.704Z" fill="#7F82DD"/>
<path d="M226.452 417.607H182.271V418.907H226.452V417.607Z" fill="#7F82DD"/>
<path d="M216.714 144.98H213.994V155.163H216.714V144.98Z" fill="#FBC42E"/>
<path d="M278.59 144.98H275.871V155.163H278.59V144.98Z" fill="#FBC42E"/>
<path d="M294.882 122H196V146.583H294.882V122Z" fill="white"/>
<path d="M296.728 148.153H195.127V120.85H296.728V148.153ZM197.848 145.434H294.009V123.57H197.848V145.434Z" fill="#FBC42E"/>
<path d="M136.871 356.807C139.821 353.518 141.617 349.173 141.617 344.407C141.617 334.145 133.298 325.826 123.036 325.826C112.774 325.826 104.455 334.145 104.455 344.407C104.455 349.173 106.251 353.518 109.201 356.807C102.81 361.211 98.6191 368.576 98.6191 376.924C98.6191 390.409 109.551 401.341 123.036 401.341C136.521 401.341 147.453 390.409 147.453 376.924C147.453 368.577 143.262 361.211 136.871 356.807Z" fill="#EFA729"/>
<path d="M122.25 350.384V424.408" stroke="#000054" strokeWidth="1.1177" strokeMiterlimit="10"/>
<path d="M112.299 369.841L122.25 379.982" stroke="#000054" strokeWidth="1.1177" strokeMiterlimit="10"/>
<path d="M137.951 373.069L122.25 390.429" stroke="#000054" strokeWidth="1.1177" strokeMiterlimit="10"/>
<path d="M387.084 356.807C390.034 353.518 391.83 349.173 391.83 344.407C391.83 334.145 383.511 325.826 373.249 325.826C362.987 325.826 354.668 334.145 354.668 344.407C354.668 349.173 356.464 353.518 359.414 356.807C353.023 361.211 348.832 368.576 348.832 376.924C348.832 390.409 359.764 401.341 373.249 401.341C386.734 401.341 397.666 390.409 397.666 376.924C397.666 368.577 393.474 361.211 387.084 356.807Z" fill="#EFA729"/>
<path d="M372.461 350.384V424.408" stroke="#000054" strokeWidth="1.1177" strokeMiterlimit="10"/>
<path d="M362.51 369.841L372.461 379.982" stroke="#000054" strokeWidth="1.1177" strokeMiterlimit="10"/>
<path d="M388.163 373.069L372.461 390.429" stroke="#000054" strokeWidth="1.1177" strokeMiterlimit="10"/>
<path d="M43.123 424.408H450.921" stroke="white" strokeWidth="1.1177" strokeMiterlimit="10"/>
<path d="M210.52 132.52V133.67H212.77V135.16H210.52V136.43H213.07V138H208.56V130.95H213.07V132.52H210.52ZM216.429 138.07C215.922 138.07 215.469 137.987 215.069 137.82C214.675 137.647 214.362 137.413 214.129 137.12C213.902 136.82 213.775 136.483 213.749 136.11H215.649C215.675 136.29 215.759 136.43 215.899 136.53C216.039 136.63 216.212 136.68 216.419 136.68C216.579 136.68 216.705 136.647 216.799 136.58C216.892 136.513 216.939 136.427 216.939 136.32C216.939 136.18 216.862 136.077 216.709 136.01C216.555 135.943 216.302 135.87 215.949 135.79C215.549 135.71 215.215 135.62 214.949 135.52C214.682 135.42 214.449 135.257 214.249 135.03C214.055 134.803 213.959 134.497 213.959 134.11C213.959 133.777 214.049 133.477 214.229 133.21C214.409 132.937 214.672 132.72 215.019 132.56C215.372 132.4 215.795 132.32 216.289 132.32C217.022 132.32 217.599 132.5 218.019 132.86C218.439 133.22 218.682 133.693 218.749 134.28H216.979C216.945 134.1 216.865 133.963 216.739 133.87C216.619 133.77 216.455 133.72 216.249 133.72C216.089 133.72 215.965 133.75 215.879 133.81C215.799 133.87 215.759 133.953 215.759 134.06C215.759 134.193 215.835 134.297 215.989 134.37C216.142 134.437 216.389 134.507 216.729 134.58C217.135 134.667 217.472 134.763 217.739 134.87C218.012 134.977 218.249 135.15 218.449 135.39C218.655 135.623 218.759 135.943 218.759 136.35C218.759 136.677 218.662 136.97 218.469 137.23C218.282 137.49 218.012 137.697 217.659 137.85C217.312 137.997 216.902 138.07 216.429 138.07ZM223.032 136.33V138H222.182C220.749 138 220.032 137.29 220.032 135.87V134.02H219.342V132.39H220.032V131.03H222.002V132.39H223.022V134.02H222.002V135.9C222.002 136.053 222.035 136.163 222.102 136.23C222.175 136.297 222.295 136.33 222.462 136.33H223.032ZM223.611 135.19C223.611 134.61 223.714 134.103 223.921 133.67C224.134 133.237 224.421 132.903 224.781 132.67C225.148 132.437 225.554 132.32 226.001 132.32C226.388 132.32 226.721 132.397 227.001 132.55C227.281 132.703 227.498 132.91 227.651 133.17V132.39H229.611V138H227.651V137.22C227.498 137.48 227.278 137.687 226.991 137.84C226.711 137.993 226.381 138.07 226.001 138.07C225.554 138.07 225.148 137.953 224.781 137.72C224.421 137.487 224.134 137.153 223.921 136.72C223.714 136.28 223.611 135.77 223.611 135.19ZM227.651 135.19C227.651 134.83 227.551 134.547 227.351 134.34C227.158 134.133 226.918 134.03 226.631 134.03C226.338 134.03 226.094 134.133 225.901 134.34C225.708 134.54 225.611 134.823 225.611 135.19C225.611 135.55 225.708 135.837 225.901 136.05C226.094 136.257 226.338 136.36 226.631 136.36C226.918 136.36 227.158 136.257 227.351 136.05C227.551 135.843 227.651 135.557 227.651 135.19ZM232.688 133.17C232.841 132.903 233.058 132.697 233.338 132.55C233.618 132.397 233.948 132.32 234.328 132.32C234.775 132.32 235.178 132.437 235.538 132.67C235.905 132.903 236.191 133.237 236.398 133.67C236.611 134.103 236.718 134.61 236.718 135.19C236.718 135.77 236.611 136.28 236.398 136.72C236.191 137.153 235.905 137.487 235.538 137.72C235.178 137.953 234.775 138.07 234.328 138.07C233.948 138.07 233.618 137.997 233.338 137.85C233.058 137.697 232.841 137.487 232.688 137.22V138H230.728V130.6H232.688V133.17ZM234.728 135.19C234.728 134.823 234.628 134.54 234.428 134.34C234.235 134.133 233.995 134.03 233.708 134.03C233.421 134.03 233.178 134.133 232.978 134.34C232.785 134.547 232.688 134.83 232.688 135.19C232.688 135.557 232.785 135.843 232.978 136.05C233.178 136.257 233.421 136.36 233.708 136.36C233.995 136.36 234.235 136.257 234.428 136.05C234.628 135.837 234.728 135.55 234.728 135.19ZM239.485 130.6V138H237.525V130.6H239.485ZM241.591 131.87C241.244 131.87 240.964 131.777 240.751 131.59C240.544 131.397 240.441 131.157 240.441 130.87C240.441 130.577 240.544 130.333 240.751 130.14C240.964 129.947 241.244 129.85 241.591 129.85C241.931 129.85 242.204 129.947 242.411 130.14C242.624 130.333 242.731 130.577 242.731 130.87C242.731 131.157 242.624 131.397 242.411 131.59C242.204 131.777 241.931 131.87 241.591 131.87ZM242.561 132.39V138H240.601V132.39H242.561ZM246.067 138.07C245.561 138.07 245.107 137.987 244.707 137.82C244.314 137.647 244.001 137.413 243.767 137.12C243.541 136.82 243.414 136.483 243.387 136.11H245.287C245.314 136.29 245.397 136.43 245.537 136.53C245.677 136.63 245.851 136.68 246.057 136.68C246.217 136.68 246.344 136.647 246.437 136.58C246.531 136.513 246.577 136.427 246.577 136.32C246.577 136.18 246.501 136.077 246.347 136.01C246.194 135.943 245.941 135.87 245.587 135.79C245.187 135.71 244.854 135.62 244.587 135.52C244.321 135.42 244.087 135.257 243.887 135.03C243.694 134.803 243.597 134.497 243.597 134.11C243.597 133.777 243.687 133.477 243.867 133.21C244.047 132.937 244.311 132.72 244.657 132.56C245.011 132.4 245.434 132.32 245.927 132.32C246.661 132.32 247.237 132.5 247.657 132.86C248.077 133.22 248.321 133.693 248.387 134.28H246.617C246.584 134.1 246.504 133.963 246.377 133.87C246.257 133.77 246.094 133.72 245.887 133.72C245.727 133.72 245.604 133.75 245.517 133.81C245.437 133.87 245.397 133.953 245.397 134.06C245.397 134.193 245.474 134.297 245.627 134.37C245.781 134.437 246.027 134.507 246.367 134.58C246.774 134.667 247.111 134.763 247.377 134.87C247.651 134.977 247.887 135.15 248.087 135.39C248.294 135.623 248.397 135.943 248.397 136.35C248.397 136.677 248.301 136.97 248.107 137.23C247.921 137.49 247.651 137.697 247.297 137.85C246.951 137.997 246.541 138.07 246.067 138.07ZM253.051 132.34C253.691 132.34 254.197 132.557 254.571 132.99C254.951 133.417 255.141 133.997 255.141 134.73V138H253.181V134.99C253.181 134.67 253.097 134.42 252.931 134.24C252.764 134.053 252.541 133.96 252.261 133.96C251.967 133.96 251.737 134.053 251.571 134.24C251.404 134.42 251.321 134.67 251.321 134.99V138H249.361V130.6H251.321V133.19C251.494 132.937 251.727 132.733 252.021 132.58C252.321 132.42 252.664 132.34 253.051 132.34ZM263.546 132.34C264.253 132.34 264.806 132.553 265.206 132.98C265.613 133.407 265.816 133.99 265.816 134.73V138H263.856V134.99C263.856 134.69 263.773 134.457 263.606 134.29C263.44 134.123 263.213 134.04 262.926 134.04C262.64 134.04 262.413 134.123 262.246 134.29C262.08 134.457 261.996 134.69 261.996 134.99V138H260.036V134.99C260.036 134.69 259.953 134.457 259.786 134.29C259.626 134.123 259.403 134.04 259.116 134.04C258.823 134.04 258.593 134.123 258.426 134.29C258.26 134.457 258.176 134.69 258.176 134.99V138H256.216V132.39H258.176V133.13C258.35 132.89 258.573 132.7 258.846 132.56C259.126 132.413 259.446 132.34 259.806 132.34C260.22 132.34 260.586 132.43 260.906 132.61C261.233 132.79 261.49 133.043 261.676 133.37C261.876 133.063 262.14 132.817 262.466 132.63C262.793 132.437 263.153 132.34 263.546 132.34ZM272.25 135.13C272.25 135.283 272.24 135.437 272.22 135.59H268.51C268.53 135.897 268.613 136.127 268.76 136.28C268.913 136.427 269.107 136.5 269.34 136.5C269.667 136.5 269.9 136.353 270.04 136.06H272.13C272.043 136.447 271.873 136.793 271.62 137.1C271.373 137.4 271.06 137.637 270.68 137.81C270.3 137.983 269.88 138.07 269.42 138.07C268.867 138.07 268.373 137.953 267.94 137.72C267.513 137.487 267.177 137.153 266.93 136.72C266.69 136.287 266.57 135.777 266.57 135.19C266.57 134.603 266.69 134.097 266.93 133.67C267.17 133.237 267.503 132.903 267.93 132.67C268.363 132.437 268.86 132.32 269.42 132.32C269.973 132.32 270.463 132.433 270.89 132.66C271.317 132.887 271.65 133.213 271.89 133.64C272.13 134.06 272.25 134.557 272.25 135.13ZM270.25 134.64C270.25 134.4 270.17 134.213 270.01 134.08C269.85 133.94 269.65 133.87 269.41 133.87C269.17 133.87 268.973 133.937 268.82 134.07C268.667 134.197 268.567 134.387 268.52 134.64H270.25ZM276.722 132.34C277.369 132.34 277.882 132.557 278.262 132.99C278.642 133.417 278.832 133.997 278.832 134.73V138H276.872V134.99C276.872 134.67 276.789 134.42 276.622 134.24C276.456 134.053 276.232 133.96 275.952 133.96C275.659 133.96 275.429 134.053 275.262 134.24C275.096 134.42 275.012 134.67 275.012 134.99V138H273.052V132.39H275.012V133.19C275.186 132.937 275.419 132.733 275.712 132.58C276.006 132.42 276.342 132.34 276.722 132.34ZM283.218 136.33V138H282.368C280.934 138 280.218 137.29 280.218 135.87V134.02H279.528V132.39H280.218V131.03H282.188V132.39H283.208V134.02H282.188V135.9C282.188 136.053 282.221 136.163 282.288 136.23C282.361 136.297 282.481 136.33 282.648 136.33H283.218Z" fill="#EFA729"/>
<rect x="68" y="425" width="373" height="84" fill="black"/>
<path d="M113.04 476.342V481.022H122.2V486.982H113.04V492.102H123.4V498.382H105.16V470.062H123.4V476.342H113.04ZM135.516 475.662C138.476 475.662 140.836 476.382 142.596 477.822C144.356 479.262 145.463 481.169 145.916 483.542H138.556C138.369 482.742 137.983 482.142 137.396 481.742C136.836 481.342 136.143 481.142 135.316 481.142C134.729 481.142 134.276 481.276 133.956 481.542C133.663 481.782 133.516 482.129 133.516 482.582C133.516 483.142 133.836 483.569 134.476 483.862C135.143 484.129 136.223 484.436 137.716 484.782C139.449 485.156 140.876 485.556 141.996 485.982C143.143 486.409 144.129 487.102 144.956 488.062C145.809 489.022 146.236 490.316 146.236 491.942C146.236 493.249 145.876 494.409 145.156 495.422C144.436 496.436 143.383 497.236 141.996 497.822C140.636 498.382 139.023 498.662 137.156 498.662C134.009 498.662 131.503 497.982 129.636 496.622C127.769 495.262 126.636 493.316 126.236 490.782H133.796C133.903 491.609 134.249 492.222 134.836 492.622C135.449 493.022 136.209 493.222 137.116 493.222C137.729 493.222 138.196 493.089 138.516 492.822C138.836 492.556 138.996 492.209 138.996 491.782C138.996 491.142 138.649 490.676 137.956 490.382C137.289 490.089 136.209 489.796 134.716 489.502C133.009 489.156 131.609 488.782 130.516 488.382C129.423 487.956 128.463 487.289 127.636 486.382C126.836 485.449 126.436 484.169 126.436 482.542C126.436 480.516 127.223 478.862 128.796 477.582C130.369 476.302 132.609 475.662 135.516 475.662ZM163.051 491.662V498.382H159.811C157.065 498.382 154.918 497.702 153.371 496.342C151.825 494.982 151.051 492.729 151.051 489.582V482.502H148.171V475.942H151.051V470.502H158.931V475.942H162.971V482.502H158.931V489.742C158.931 490.436 159.078 490.929 159.371 491.222C159.691 491.516 160.211 491.662 160.931 491.662H163.051ZM174.964 475.662C176.538 475.662 177.898 476.009 179.044 476.702C180.218 477.369 181.084 478.302 181.644 479.502V475.942H189.484V498.382H181.644V494.822C181.084 496.022 180.218 496.969 179.044 497.662C177.898 498.329 176.538 498.662 174.964 498.662C173.178 498.662 171.564 498.209 170.124 497.302C168.684 496.369 167.551 495.036 166.724 493.302C165.898 491.542 165.484 489.489 165.484 487.142C165.484 484.796 165.898 482.756 166.724 481.022C167.551 479.289 168.684 477.969 170.124 477.062C171.564 476.129 173.178 475.662 174.964 475.662ZM177.564 482.542C176.338 482.542 175.338 482.956 174.564 483.782C173.818 484.582 173.444 485.702 173.444 487.142C173.444 488.609 173.818 489.756 174.564 490.582C175.338 491.382 176.338 491.782 177.564 491.782C178.738 491.782 179.711 491.369 180.484 490.542C181.258 489.716 181.644 488.582 181.644 487.142C181.644 485.729 181.258 484.609 180.484 483.782C179.711 482.956 178.738 482.542 177.564 482.542ZM208.313 475.662C210.099 475.662 211.713 476.129 213.153 477.062C214.593 477.969 215.726 479.289 216.553 481.022C217.379 482.756 217.793 484.796 217.793 487.142C217.793 489.489 217.379 491.542 216.553 493.302C215.726 495.036 214.593 496.369 213.153 497.302C211.713 498.209 210.099 498.662 208.313 498.662C206.739 498.662 205.379 498.329 204.233 497.662C203.086 496.969 202.233 496.022 201.673 494.822V498.382H193.793V468.782H201.673V479.502C202.233 478.302 203.086 477.369 204.233 476.702C205.379 476.009 206.739 475.662 208.313 475.662ZM205.713 482.542C204.539 482.542 203.566 482.956 202.793 483.782C202.019 484.609 201.633 485.729 201.633 487.142C201.633 488.582 202.019 489.716 202.793 490.542C203.566 491.369 204.539 491.782 205.713 491.782C206.939 491.782 207.926 491.382 208.673 490.582C209.446 489.756 209.833 488.609 209.833 487.142C209.833 485.702 209.446 484.582 208.673 483.782C207.926 482.956 206.939 482.542 205.713 482.542ZM228.821 468.782V498.382H220.941V468.782H228.821ZM232.528 469.742C232.528 468.569 232.954 467.609 233.808 466.862C234.661 466.089 235.781 465.702 237.168 465.702C238.554 465.702 239.661 466.089 240.488 466.862C241.314 467.609 241.728 468.569 241.728 469.742C241.728 470.862 241.301 471.796 240.448 472.542C239.621 473.289 238.528 473.662 237.168 473.662C235.781 473.662 234.661 473.289 233.808 472.542C232.954 471.796 232.528 470.862 232.528 469.742ZM241.048 475.942V498.382H233.168V475.942H241.048ZM253.914 475.662C256.874 475.662 259.234 476.382 260.994 477.822C262.754 479.262 263.861 481.169 264.314 483.542H256.954C256.768 482.742 256.381 482.142 255.794 481.742C255.234 481.342 254.541 481.142 253.714 481.142C253.128 481.142 252.674 481.276 252.354 481.542C252.061 481.782 251.914 482.129 251.914 482.582C251.914 483.142 252.234 483.569 252.874 483.862C253.541 484.129 254.621 484.436 256.114 484.782C257.848 485.156 259.274 485.556 260.394 485.982C261.541 486.409 262.528 487.102 263.354 488.062C264.208 489.022 264.634 490.316 264.634 491.942C264.634 493.249 264.274 494.409 263.554 495.422C262.834 496.436 261.781 497.236 260.394 497.822C259.034 498.382 257.421 498.662 255.554 498.662C252.408 498.662 249.901 497.982 248.034 496.622C246.168 495.262 245.034 493.316 244.634 490.782H252.194C252.301 491.609 252.648 492.222 253.234 492.622C253.848 493.022 254.608 493.222 255.514 493.222C256.128 493.222 256.594 493.089 256.914 492.822C257.234 492.556 257.394 492.209 257.394 491.782C257.394 491.142 257.048 490.676 256.354 490.382C255.688 490.089 254.608 489.796 253.114 489.502C251.408 489.156 250.008 488.782 248.914 488.382C247.821 487.956 246.861 487.289 246.034 486.382C245.234 485.449 244.834 484.169 244.834 482.542C244.834 480.516 245.621 478.862 247.194 477.582C248.768 476.302 251.008 475.662 253.914 475.662ZM283.09 475.742C285.676 475.742 287.703 476.609 289.17 478.342C290.636 480.049 291.37 482.382 291.37 485.342V498.382H283.57V486.342C283.57 485.036 283.223 484.022 282.53 483.302C281.863 482.556 280.956 482.182 279.81 482.182C278.636 482.182 277.703 482.569 277.01 483.342C276.316 484.089 275.97 485.129 275.97 486.462V498.382H268.09V468.782H275.97V479.702C276.61 478.502 277.543 477.542 278.77 476.822C279.996 476.102 281.436 475.742 283.09 475.742ZM325.071 475.742C327.897 475.742 330.097 476.596 331.671 478.302C333.271 480.009 334.071 482.356 334.071 485.342V498.382H326.231V486.342C326.231 485.142 325.897 484.209 325.231 483.542C324.564 482.876 323.671 482.542 322.551 482.542C321.377 482.542 320.444 482.889 319.751 483.582C319.084 484.249 318.751 485.209 318.751 486.462V498.382H310.911V486.342C310.911 485.142 310.577 484.209 309.911 483.542C309.244 482.876 308.351 482.542 307.231 482.542C306.057 482.542 305.124 482.889 304.431 483.582C303.764 484.249 303.431 485.209 303.431 486.462V498.382H295.551V475.942H303.431V479.382C304.071 478.262 304.964 477.382 306.111 476.742C307.257 476.076 308.604 475.742 310.151 475.742C311.831 475.742 313.311 476.116 314.591 476.862C315.871 477.609 316.871 478.676 317.591 480.062C318.364 478.756 319.404 477.716 320.711 476.942C322.017 476.142 323.471 475.742 325.071 475.742ZM359.806 486.742C359.806 487.302 359.739 487.916 359.606 488.582H344.766C344.899 491.116 346.006 492.382 348.086 492.382C348.859 492.382 349.499 492.196 350.006 491.822C350.513 491.449 350.859 490.956 351.046 490.342H359.366C359.073 491.916 358.419 493.342 357.406 494.622C356.393 495.876 355.113 496.862 353.566 497.582C352.019 498.302 350.326 498.662 348.486 498.662C346.246 498.662 344.259 498.209 342.526 497.302C340.819 496.369 339.486 495.036 338.526 493.302C337.566 491.542 337.086 489.489 337.086 487.142C337.086 484.796 337.566 482.756 338.526 481.022C339.486 479.289 340.833 477.969 342.566 477.062C344.299 476.129 346.273 475.662 348.486 475.662C350.726 475.662 352.699 476.116 354.406 477.022C356.113 477.929 357.433 479.222 358.366 480.902C359.326 482.582 359.806 484.529 359.806 486.742ZM351.806 485.302C351.833 484.156 351.526 483.289 350.886 482.702C350.246 482.116 349.446 481.822 348.486 481.822C347.446 481.822 346.593 482.116 345.926 482.702C345.286 483.289 344.913 484.156 344.806 485.302H351.806ZM377.973 475.742C380.559 475.742 382.586 476.609 384.053 478.342C385.519 480.049 386.253 482.382 386.253 485.342V498.382H378.453V486.342C378.453 485.036 378.106 484.022 377.413 483.302C376.746 482.556 375.839 482.182 374.693 482.182C373.519 482.182 372.586 482.569 371.893 483.342C371.199 484.089 370.853 485.129 370.853 486.462V498.382H362.973V475.942H370.853V479.702C371.493 478.502 372.426 477.542 373.653 476.822C374.879 476.102 376.319 475.742 377.973 475.742ZM403.793 491.662V498.382H400.553C397.807 498.382 395.66 497.702 394.113 496.342C392.567 494.982 391.793 492.729 391.793 489.582V482.502H388.913V475.942H391.793V470.502H399.673V475.942H403.713V482.502H399.673V489.742C399.673 490.436 399.82 490.929 400.113 491.222C400.433 491.516 400.953 491.662 401.673 491.662H403.793Z" fill="white"/>
<path d="M191.92 450.712V457H188.536V440.056H194.704C196.704 440.056 198.208 440.536 199.216 441.496C200.24 442.456 200.752 443.76 200.752 445.408C200.752 447.024 200.224 448.312 199.168 449.272C198.128 450.232 196.64 450.712 194.704 450.712H191.92ZM194.344 448C196.328 448 197.32 447.136 197.32 445.408C197.32 444.56 197.088 443.912 196.624 443.464C196.16 443.016 195.4 442.792 194.344 442.792H191.92V448H194.344ZM206.334 439.24V457H202.95V439.24H206.334ZM221.899 449.848C221.899 450.184 221.859 450.568 221.779 451H212.035C212.083 452.184 212.403 453.056 212.995 453.616C213.587 454.176 214.323 454.456 215.203 454.456C215.987 454.456 216.635 454.264 217.147 453.88C217.675 453.496 218.011 452.976 218.155 452.32H221.731C221.555 453.248 221.179 454.08 220.603 454.816C220.027 455.552 219.283 456.128 218.371 456.544C217.475 456.96 216.475 457.168 215.371 457.168C214.075 457.168 212.923 456.896 211.915 456.352C210.907 455.792 210.123 455 209.563 453.976C209.003 452.952 208.723 451.744 208.723 450.352C208.723 448.96 209.003 447.752 209.563 446.728C210.123 445.688 210.907 444.896 211.915 444.352C212.923 443.808 214.075 443.536 215.371 443.536C216.683 443.536 217.827 443.808 218.803 444.352C219.795 444.896 220.555 445.648 221.083 446.608C221.627 447.552 221.899 448.632 221.899 449.848ZM218.491 449.512C218.539 448.424 218.251 447.6 217.627 447.04C217.019 446.48 216.267 446.2 215.371 446.2C214.459 446.2 213.691 446.48 213.067 447.04C212.443 447.6 212.099 448.424 212.035 449.512H218.491ZM229.51 443.536C230.63 443.536 231.59 443.8 232.39 444.328C233.19 444.856 233.758 445.568 234.094 446.464V443.704H237.454V457H234.094V454.216C233.758 455.112 233.19 455.832 232.39 456.376C231.59 456.904 230.63 457.168 229.51 457.168C228.39 457.168 227.382 456.896 226.486 456.352C225.59 455.808 224.886 455.024 224.374 454C223.878 452.96 223.63 451.744 223.63 450.352C223.63 448.96 223.878 447.752 224.374 446.728C224.886 445.688 225.59 444.896 226.486 444.352C227.382 443.808 228.39 443.536 229.51 443.536ZM230.566 446.488C229.51 446.488 228.662 446.832 228.022 447.52C227.382 448.208 227.062 449.152 227.062 450.352C227.062 451.552 227.382 452.496 228.022 453.184C228.662 453.856 229.51 454.192 230.566 454.192C231.59 454.192 232.43 453.848 233.086 453.16C233.758 452.456 234.094 451.52 234.094 450.352C234.094 449.168 233.758 448.232 233.086 447.544C232.43 446.84 231.59 446.488 230.566 446.488ZM245.104 443.536C246.72 443.536 248.016 443.944 248.992 444.76C249.968 445.576 250.576 446.664 250.816 448.024H247.648C247.52 447.384 247.232 446.872 246.784 446.488C246.336 446.104 245.752 445.912 245.032 445.912C244.456 445.912 244.008 446.048 243.688 446.32C243.368 446.592 243.208 446.96 243.208 447.424C243.208 447.792 243.336 448.088 243.592 448.312C243.848 448.536 244.168 448.712 244.552 448.84C244.936 448.968 245.488 449.12 246.208 449.296C247.216 449.52 248.032 449.76 248.656 450.016C249.296 450.256 249.84 450.648 250.288 451.192C250.752 451.72 250.984 452.44 250.984 453.352C250.984 454.488 250.536 455.408 249.64 456.112C248.76 456.816 247.568 457.168 246.064 457.168C244.336 457.168 242.952 456.784 241.912 456.016C240.872 455.232 240.24 454.12 240.016 452.68H243.256C243.336 453.336 243.624 453.856 244.12 454.24C244.616 454.608 245.264 454.792 246.064 454.792C246.64 454.792 247.08 454.656 247.384 454.384C247.688 454.096 247.84 453.728 247.84 453.28C247.84 452.896 247.704 452.584 247.432 452.344C247.176 452.104 246.848 451.92 246.448 451.792C246.064 451.664 245.512 451.512 244.792 451.336C243.8 451.112 242.992 450.888 242.368 450.664C241.76 450.424 241.232 450.048 240.784 449.536C240.352 449.024 240.136 448.32 240.136 447.424C240.136 446.272 240.576 445.336 241.456 444.616C242.336 443.896 243.552 443.536 245.104 443.536ZM266.009 449.848C266.009 450.184 265.969 450.568 265.889 451H256.145C256.193 452.184 256.513 453.056 257.105 453.616C257.697 454.176 258.433 454.456 259.313 454.456C260.097 454.456 260.745 454.264 261.257 453.88C261.785 453.496 262.121 452.976 262.265 452.32H265.841C265.665 453.248 265.289 454.08 264.713 454.816C264.137 455.552 263.393 456.128 262.481 456.544C261.585 456.96 260.585 457.168 259.481 457.168C258.185 457.168 257.033 456.896 256.025 456.352C255.017 455.792 254.233 455 253.673 453.976C253.113 452.952 252.833 451.744 252.833 450.352C252.833 448.96 253.113 447.752 253.673 446.728C254.233 445.688 255.017 444.896 256.025 444.352C257.033 443.808 258.185 443.536 259.481 443.536C260.793 443.536 261.937 443.808 262.913 444.352C263.905 444.896 264.665 445.648 265.193 446.608C265.737 447.552 266.009 448.632 266.009 449.848ZM262.601 449.512C262.649 448.424 262.361 447.6 261.737 447.04C261.129 446.48 260.377 446.2 259.481 446.2C258.569 446.2 257.801 446.48 257.177 447.04C256.553 447.6 256.209 448.424 256.145 449.512H262.601ZM283.958 453.592H277.166L275.966 457H272.39L278.63 440.248H282.494L288.71 457H285.134L283.958 453.592ZM283.046 451.024L280.55 443.872L278.054 451.024H283.046ZM295.744 443.536C296.864 443.536 297.816 443.8 298.6 444.328C299.4 444.856 299.976 445.568 300.328 446.464V439.24H303.688V457H300.328V454.216C299.976 455.112 299.4 455.832 298.6 456.376C297.816 456.904 296.864 457.168 295.744 457.168C294.624 457.168 293.616 456.896 292.72 456.352C291.824 455.808 291.12 455.024 290.608 454C290.112 452.96 289.864 451.744 289.864 450.352C289.864 448.96 290.112 447.752 290.608 446.728C291.12 445.688 291.824 444.896 292.72 444.352C293.616 443.808 294.624 443.536 295.744 443.536ZM296.8 446.488C295.744 446.488 294.896 446.832 294.256 447.52C293.616 448.208 293.296 449.152 293.296 450.352C293.296 451.552 293.616 452.496 294.256 453.184C294.896 453.856 295.744 454.192 296.8 454.192C297.824 454.192 298.664 453.848 299.32 453.16C299.992 452.456 300.328 451.52 300.328 450.352C300.328 449.168 299.992 448.232 299.32 447.544C298.664 446.84 297.824 446.488 296.8 446.488ZM311.963 443.536C313.083 443.536 314.035 443.8 314.819 444.328C315.619 444.856 316.195 445.568 316.547 446.464V439.24H319.907V457H316.547V454.216C316.195 455.112 315.619 455.832 314.819 456.376C314.035 456.904 313.083 457.168 311.963 457.168C310.843 457.168 309.835 456.896 308.939 456.352C308.043 455.808 307.339 455.024 306.827 454C306.331 452.96 306.083 451.744 306.083 450.352C306.083 448.96 306.331 447.752 306.827 446.728C307.339 445.688 308.043 444.896 308.939 444.352C309.835 443.808 310.843 443.536 311.963 443.536ZM313.019 446.488C311.963 446.488 311.115 446.832 310.475 447.52C309.835 448.208 309.515 449.152 309.515 450.352C309.515 451.552 309.835 452.496 310.475 453.184C311.115 453.856 311.963 454.192 313.019 454.192C314.043 454.192 314.883 453.848 315.539 453.16C316.211 452.456 316.547 451.52 316.547 450.352C316.547 449.168 316.211 448.232 315.539 447.544C314.883 446.84 314.043 446.488 313.019 446.488Z" fill="white"/>
</svg>
