<svg width="16" height="16" viewBox="0 0 16 16" fill="none" xmlns="http://www.w3.org/2000/svg">
<g clipPath="url(#clip0_5233_4006)">
<rect width="16" height="16" fill="#FFD351"/>
<path d="M12.3996 7.89773L12.3997 7.89776C12.7225 7.5653 12.9667 7.16469 13.1142 6.72547C13.3687 5.96242 13.3732 5.18377 13.2207 4.38323L13.2204 4.38169C13.1188 3.82849 12.8811 3.30946 12.5288 2.87138C12.0931 2.33186 11.5167 1.98328 10.8479 1.7621C10.26 1.56964 9.64395 1.47692 9.02523 1.48779L9.02422 1.48781C8.51376 1.49456 8.00184 1.5207 7.48704 1.5504L7.48663 1.55042C6.27665 1.61809 5.06707 1.69307 3.85788 1.77536L3.85775 1.77537C3.69603 1.78628 3.526 1.83133 3.34805 1.88955L3.34765 1.88969C3.12557 1.9619 3.00148 2.09194 2.97137 2.2994C2.95783 2.39413 2.96344 2.5 2.97435 2.62578L2.97436 2.62591C3.01023 3.04233 3.14385 3.44322 3.30401 3.85668L12.3996 7.89773ZM12.3996 7.89773L12.3968 7.90073M12.3996 7.89773L12.3968 7.90073M12.3968 7.90073C11.931 8.39756 11.3867 8.7188 10.7767 8.95807L10.7766 8.95813M12.3968 7.90073L10.7766 8.95813M10.7766 8.95813C9.95453 9.28123 9.09014 9.43534 8.19842 9.50603M10.7766 8.95813L8.21695 9.73968M8.12153 12.4176L8.12153 12.4176C7.87195 11.7564 7.61201 11.0644 7.53465 10.3142M8.12153 12.4176L8.21695 9.73968M8.12153 12.4176C8.31523 12.9306 8.48368 13.412 8.49681 13.9231M8.12153 12.4176L8.49681 13.9231M7.53465 10.3142L7.7678 10.2902L7.53466 10.3143C7.53465 10.3143 7.53465 10.3142 7.53465 10.3142ZM7.53465 10.3142C7.52312 10.2026 7.51614 10.0971 7.52405 10.0044C7.53213 9.90969 7.55739 9.80583 7.62951 9.71646C7.70222 9.62637 7.79902 9.58005 7.89164 9.55339C7.98158 9.5275 8.08663 9.51484 8.19842 9.50603M8.19842 9.50603L8.21695 9.73968M8.19842 9.50603C8.19846 9.50603 8.1985 9.50603 8.19854 9.50602L8.21695 9.73968M3.85121 12.9095L3.85121 12.9095C3.74292 13.3136 3.69756 13.7319 3.71671 14.1497C3.73195 14.4485 3.90518 14.6488 4.15562 14.6892C4.35251 14.7208 4.5346 14.7442 4.70646 14.7345C5.68336 14.6795 6.66094 14.6137 7.63918 14.5464C7.84349 14.5323 8.02731 14.4931 8.19655 14.4067C8.31291 14.3473 8.38568 14.28 8.43002 14.2086C8.47378 14.1381 8.49994 14.0473 8.49681 13.9232C8.49681 13.9231 8.49681 13.9231 8.49681 13.9231M3.85121 12.9095L8.73112 13.9172L8.49681 13.9231M3.85121 12.9095L3.85169 12.9076M3.85121 12.9095L3.85169 12.9076M3.85169 12.9076C4.21274 11.515 4.28531 10.1053 4.20677 8.69078L4.20677 8.69074M3.85169 12.9076L4.20677 8.69074M4.20677 8.69074C4.16409 7.9243 4.09998 7.15578 3.98128 6.38954M4.20677 8.69074L3.98128 6.38954M3.98128 6.38954C3.84839 5.52309 3.62131 4.67383 3.30408 3.85685L3.98128 6.38954ZM9.6135 6.22051L9.64658 6.20176L9.67203 6.17353C10.2442 5.53868 10.2363 4.60241 9.53123 4.13189C8.96394 3.75312 8.33831 3.72986 7.73724 3.85411L7.73706 3.85414C7.57437 3.8879 7.42125 3.95273 7.31464 4.08099C7.20556 4.21222 7.17635 4.3719 7.18266 4.52773L7.18267 4.5279C7.20276 5.01564 7.23205 5.50562 7.27597 5.99388L7.27597 5.99393C7.29014 6.15106 7.32537 6.31475 7.44845 6.43771C7.56762 6.55676 7.72973 6.59701 7.88263 6.62039C8.30177 6.68756 8.73133 6.64185 9.12712 6.48797L9.12747 6.48783C9.28437 6.42654 9.44552 6.32517 9.54377 6.26336C9.57331 6.24478 9.59716 6.22977 9.6135 6.22051Z" fill="#30EBFF" stroke="white" strokeWidth="0.468766"/>
</g>
<defs>
<clipPath id="clip0_5233_4006">
<rect width="16" height="16" fill="white"/>
</clipPath>
</defs>
</svg>
